<?xml version="1.0" encoding="utf-8"?>
<!-- Generator: Adobe Illustrator 19.2.1, SVG Export Plug-In . SVG Version: 6.00 Build 0)  -->
<svg version="1.1" id="_x3C_Layer_x3E_" xmlns="http://www.w3.org/2000/svg" xmlns:xlink="http://www.w3.org/1999/xlink" x="0px"
	 y="0px" viewBox="0 0 397.3 106.7" style="enable-background:new 0 0 397.3 106.7;" xml:space="preserve">
<style type="text/css">
	.st0{fill:#00953A;}
</style>
<g>
	<path class="st0" d="M41.4,40.2c-3.8,0-7.1,0.7-9.9,2.1c-2.8,1.4-5.3,3.6-7.5,6.6h-0.2V8.3H4.5v88.2h19.3V68.2c0-3.6,0.8-6.6,2.5-9
		c1.7-2.4,4.2-3.6,7.6-3.6c3,0,5.2,1,6.6,2.9c1.4,1.9,2.1,5.1,2.1,9.6v28.5h19.3V62.8c0-7-1.8-12.5-5.3-16.6
		C53.2,42.2,48.1,40.2,41.4,40.2z"/>
	<path class="st0" d="M94.3,98.3c7.7-0.1,13.1-2.8,16.5-7.9h0.2v6.1h19.3V42H111v5.3c-4.2-4.6-9.8-7-16.9-7.1
		c-7.5,0-13.9,2.8-19.3,8.3c-5.3,5.5-8,12.4-8,20.7c0,8.4,2.7,15.3,8,20.8C80.1,95.6,86.6,98.3,94.3,98.3z M87.3,61.2l2.8,4.5
		l4.9-1.7l3,5.4l3.4-2.1l1.5,1.2l2.1-1.4l-1.9,0.6l-1.5-1.8l-2.7,0.9l-2.3-6.3l-4.6,0.7L90,56.8c2.5-3.2,5.7-5.3,9.2-5.3
		c7.8,0,14.2,10.3,14.2,20.1c0,9.8-6.3,15.4-14.2,15.4S85,81.4,85,71.6C85,68.1,85.9,64.4,87.3,61.2z"/>
	<polygon class="st0" points="171.2,42 160.3,42 160.3,25.7 141,25.7 141,42 134.7,42 134.7,58 141,58 141,96.5 160.3,96.5 
		160.3,58 171.2,58 	"/>
	<path class="st0" d="M200,40.2c-8.7,0-16,2.8-21.8,8.3c-5.8,5.6-8.7,12.7-8.7,21.3c0,8.1,2.9,14.8,8.6,20.2
		c5.7,5.4,12.7,8.1,21.1,8.3c4.8,0,9.3-1,13.6-3.1V78.9c-2.6,2.3-5.8,3.6-9.7,3.7c-4,0-7.3-1.2-9.8-3.7c-2.5-2.4-3.8-5.7-3.8-9.7
		c0.1-3.8,1.4-6.9,3.9-9.4c2.5-2.5,5.6-3.8,9.4-3.9c3.1,0,6.4,1.3,10,3.8V43.4c-0.9-0.6-2.4-1.2-4.3-1.9
		C206.5,40.9,203.7,40.4,200,40.2z"/>
	<path class="st0" d="M278.2,96.5V62.8c0-7-1.8-12.5-5.3-16.6c-3.5-4-8.6-6.1-15.2-6.1c-3.8,0-7.1,0.7-9.9,2.1
		c-2.8,1.4-5.3,3.6-7.5,6.6h-0.2V8.3h-19.3v88.2h19.3V68.2c0-3.6,0.8-6.6,2.5-9c1.7-2.4,4.2-3.6,7.6-3.6c3,0,5.2,1,6.6,2.9
		c1.4,1.9,2.1,5.1,2.1,9.6v28.5H278.2z"/>
	<polygon class="st0" points="105.7,72.3 105.7,72.3 105.7,72.3 	"/>
	<path class="st0" d="M358,41.1c0,4,3.2,7.2,7.2,7.2c4,0,7.2-3.2,7.2-7.2c0-4-3.2-7.2-7.2-7.2C361.2,34,358,37.2,358,41.1z
		 M370.3,41.1c0,2.8-2.3,5.1-5.1,5.1c-2.8,0-5.1-2.3-5.1-5.1s2.3-5.1,5.1-5.1C368,36,370.3,38.3,370.3,41.1z"/>
	<path class="st0" d="M372.8,13.5l6.1-6.1l0,0c0.2,0.1,0.4,0.2,0.7,0.3c0,0,0.1,0,0.1,0c0.2,0.1,0.4,0.1,0.7,0.1c0.1,0,0.1,0,0.2,0
		c0.1,0,0.2,0,0.3,0c0.1,0,0.1,0,0.2,0c0.1,0,0.2-0.1,0.3-0.1c0.1,0,0.1,0,0.2-0.1c0.1,0,0.2-0.1,0.3-0.2c0,0,0.1-0.1,0.1-0.1
		c0.2-0.1,0.3-0.2,0.4-0.4c1.2-1.2,1.2-3,0-4.2c-0.3-0.3-0.6-0.5-1-0.6c-0.4-0.1-0.7-0.2-1.1-0.2c-0.4,0-0.8,0.1-1.1,0.2
		c-0.2,0.1-0.3,0.2-0.5,0.3c-0.2,0.1-0.3,0.2-0.5,0.4c-0.5,0.5-0.8,1.1-0.8,1.7c-0.1,0.5,0,1,0.2,1.4c0.1,0.1,0.1,0.3,0.2,0.4
		l-6.3,6.3C372,12.8,372.4,13.1,372.8,13.5z"/>
	<path class="st0" d="M342.1,30.6l10.6-8.6l10.6,8.6l10.3-8.4l10,8.2c-7-13.7-18.3-23.7-31-23.7c-12.7,0-23.9,10-31,23.7l10-8.2
		L342.1,30.6z"/>
	<circle class="st0" cx="365.2" cy="41.1" r="3.6"/>
	<path class="st0" d="M381.7,35.4c-0.5-1.1-1-2.2-1.6-3.2c-0.3-0.5-0.6-1.1-0.9-1.6c-0.6-1-1.2-2-1.9-3c-0.2-0.3-0.5-0.6-0.7-1
		l-3-2.4l-0.5,0.4c6.8,8.1,11.5,19.7,12.4,31.4l1.4-1.1c-0.5-5.5-1.9-10.9-3.8-16C382.7,37.6,382.2,36.5,381.7,35.4z"/>
	<circle class="st0" cx="340.3" cy="41.1" r="3.6"/>
	<path class="st0" d="M390.8,53.6l-6.8,5.5l-10.3-8.4l-10.3,8.4l-10.6-8.6l-10.6,8.6l-10.3-8.4l-10.3,8.4l-6.8-5.5
		c-0.3,2.6-0.5,5.1-0.5,7.7c0,26.6,17.2,41.7,38.5,41.7c21.3,0,38.5-15.1,38.5-41.7C391.2,58.7,391.1,56.2,390.8,53.6z M361.6,88.6
		h-5.7V66.7h5.7V88.6z M378.7,71.6H374v17.1h-5.7V71.6h-4.7v-4.8h15.1V71.6z"/>
	<path class="st0" d="M333.1,41.1c0,4,3.2,7.2,7.2,7.2c4,0,7.2-3.2,7.2-7.2c0-4-3.2-7.2-7.2-7.2C336.3,34,333.1,37.2,333.1,41.1z
		 M345.4,41.1c0,2.8-2.3,5.1-5.1,5.1c-2.8,0-5.1-2.3-5.1-5.1s2.3-5.1,5.1-5.1C343.1,36,345.4,38.3,345.4,41.1z"/>
	<path class="st0" d="M322.9,6.9C322.9,6.9,322.9,6.9,322.9,6.9c0.1,0.1,0.3,0.2,0.4,0.3c0,0,0.1,0.1,0.2,0.1
		c0.1,0.1,0.2,0.1,0.3,0.2c0.1,0,0.1,0,0.2,0.1c0.1,0,0.2,0.1,0.3,0.1c0.1,0,0.1,0,0.2,0c0.1,0,0.2,0,0.3,0c0.1,0,0.1,0,0.2,0
		c0.2,0,0.4,0,0.7-0.1c0,0,0.1,0,0.1,0c0.2-0.1,0.4-0.1,0.6-0.3l0,0l6.2,6.2c0.4-0.3,0.8-0.6,1.2-1l-6.2-6.2c0.6-1,0.5-2.2-0.1-3.2
		c-0.1-0.1-0.2-0.3-0.3-0.4c-0.1-0.1-0.3-0.3-0.5-0.4c-0.2-0.1-0.3-0.2-0.5-0.3c-0.4-0.1-0.7-0.2-1.1-0.2c-0.8,0-1.5,0.3-2.1,0.9
		c-0.3,0.3-0.5,0.6-0.6,1c-0.3,0.7-0.3,1.5,0,2.2C322.4,6.2,322.6,6.6,322.9,6.9z"/>
	<path class="st0" d="M332.3,24.5l-0.5-0.4l-3.1,2.5c-5.6,7.9-9.2,18.1-10.3,28.2l1.4,1.1C320.8,44.2,325.5,32.6,332.3,24.5z"/>
</g>
</svg>
