<?xml version="1.0" encoding="utf-8"?>
<!-- Generator: Adobe Illustrator 15.0.0, SVG Export Plug-In . SVG Version: 6.00 Build 0)  -->
<!DOCTYPE svg PUBLIC "-//W3C//DTD SVG 1.1//EN" "http://www.w3.org/Graphics/SVG/1.1/DTD/svg11.dtd">
<svg version="1.1"
	 id="svg2" sodipodi:version="0.32" inkscape:version="0.43" sodipodi:docname="logo-python-generic.svg" sodipodi:docbase="/home/sdeibel" xmlns:inkscape="http://www.inkscape.org/namespaces/inkscape" xmlns:sodipodi="http://inkscape.sourceforge.net/DTD/sodipodi-0.dtd" xmlns:svg="http://www.w3.org/2000/svg" xmlns:rdf="http://www.w3.org/1999/02/22-rdf-syntax-ns#" xmlns:cc="http://web.resource.org/cc/" xmlns:dc="http://purl.org/dc/elements/1.1/"
	 xmlns="http://www.w3.org/2000/svg" xmlns:xlink="http://www.w3.org/1999/xlink" x="0px" y="0px" width="782px" height="300px"
	 viewBox="-108.08 -80.99 782 300" enable-background="new -108.08 -80.99 782 300" xml:space="preserve">
<sodipodi:namedview  id="base" inkscape:window-y="0" inkscape:current-layer="svg2" borderopacity="1.0" inkscape:window-width="791" inkscape:window-height="543" inkscape:pageshadow="2" inkscape:pageopacity="0.0" bordercolor="#666666" pagecolor="#ffffff" inkscape:zoom="1.4340089" inkscape:cx="243.02499" inkscape:cy="71.887497" inkscape:window-x="0">
	</sodipodi:namedview>
<linearGradient id="path1948_1_" gradientUnits="userSpaceOnUse" x1="178.168" y1="-98.8503" x2="287.1866" y2="-192.6462" gradientTransform="matrix(0.5625 0 0 -0.568 -97.3642 -46.5482)">
	<stop  offset="0" style="stop-color:#5A9FD4"/>
	<stop  offset="1" style="stop-color:#306998"/>
</linearGradient>
<path id="path1948" fill="url(#path1948_1_)" d="M60.51,6.398c-4.584,0.021-8.961,0.412-12.812,1.094
	c-11.346,2.005-13.406,6.2-13.406,13.938v10.219h26.812v3.406H34.292H24.229c-7.792,0-14.616,4.684-16.75,13.594
	c-2.462,10.213-2.571,16.586,0,27.25c1.906,7.938,6.458,13.594,14.25,13.594h9.219v-12.25c0-8.85,7.657-16.656,16.75-16.656h26.781
	c7.455,0,13.406-6.138,13.406-13.625V21.429c0-7.266-6.13-12.725-13.406-13.938C69.873,6.725,65.094,6.376,60.51,6.398z
	 M46.01,14.616c2.77,0,5.031,2.299,5.031,5.125c0,2.816-2.262,5.094-5.031,5.094c-2.78,0-5.031-2.277-5.031-5.094
	C40.979,16.915,43.23,14.616,46.01,14.616z"/>
<linearGradient id="path1950_1_" gradientUnits="userSpaceOnUse" x1="329.333" y1="-249.4133" x2="290.4034" y2="-194.3347" gradientTransform="matrix(0.5625 0 0 -0.568 -97.3642 -46.5482)">
	<stop  offset="0" style="stop-color:#FFD43B"/>
	<stop  offset="1" style="stop-color:#FFE873"/>
</linearGradient>
<path id="path1950" fill="url(#path1950_1_)" d="M91.229,35.054V46.96c0,9.231-7.826,17-16.75,17H47.698
	c-7.336,0-13.406,6.278-13.406,13.625v25.531c0,7.267,6.318,11.541,13.406,13.625c8.487,2.496,16.626,2.947,26.781,0
	c6.75-1.954,13.406-5.888,13.406-13.625V92.898H61.104v-3.406h26.781h13.406c7.792,0,10.696-5.436,13.406-13.594
	c2.799-8.398,2.68-16.476,0-27.25c-1.926-7.757-5.604-13.594-13.406-13.594H91.229z M76.167,99.71c2.779,0,5.031,2.277,5.031,5.094
	c0,2.826-2.252,5.125-5.031,5.125c-2.77,0-5.031-2.299-5.031-5.125C71.135,101.988,73.397,99.71,76.167,99.71z"/>
<g>
	<path id="path46" fill="#646464" d="M292.613,61.929c0-14.562-4.152-22.038-12.457-22.447c-3.304-0.156-6.53,0.37-9.669,1.589
		c-2.505,0.896-4.19,1.784-5.078,2.681v34.758c5.312,3.334,10.03,4.884,14.144,4.64C288.256,82.573,292.613,75.507,292.613,61.929z
		 M302.857,62.533c0,7.398-1.734,13.539-5.225,18.422c-3.889,5.527-9.279,8.373-16.17,8.529c-5.195,0.165-10.547-1.462-16.054-4.874
		v31.591l-8.909-3.178V42.903c1.463-1.793,3.344-3.333,5.625-4.639c5.302-3.09,11.744-4.679,19.328-4.757l0.127,0.127
		c6.93-0.088,12.271,2.758,16.023,8.528C301.104,47.455,302.857,54.239,302.857,62.533z"/>
	<path id="path48" fill="#646464" d="M357.305,83.266c0,9.923-0.994,16.794-2.982,20.615c-1.998,3.82-5.799,6.871-11.414,9.143
		c-4.552,1.793-9.475,2.769-14.757,2.934l-1.472-5.614c5.371-0.73,9.152-1.462,11.346-2.193c4.318-1.462,7.281-3.703,8.908-6.706
		c1.307-2.446,1.949-7.115,1.949-14.025v-2.32c-6.092,2.769-12.476,4.143-19.152,4.143c-4.387,0-8.256-1.374-11.59-4.143
		c-3.742-3.012-5.613-6.832-5.613-11.462V36.558l8.908-3.051v37.321c0,3.986,1.287,7.057,3.859,9.211
		c2.574,2.154,5.907,3.188,9.991,3.109c4.084-0.088,8.46-1.667,13.11-4.757v-43.54h8.908V83.266z"/>
	<path id="path50" fill="#646464" d="M392.082,88.997c-1.062,0.088-2.037,0.126-2.934,0.126c-5.039,0-8.967-1.198-11.774-3.605
		c-2.798-2.408-4.2-5.731-4.2-9.972v-35.09h-6.103v-5.604h6.103V19.968l8.898-3.168v18.052h10.01v5.604h-10.01v34.846
		c0,3.344,0.896,5.712,2.689,7.097c1.541,1.14,3.987,1.793,7.32,1.959V88.997z"/>
	<path id="path52" fill="#646464" d="M446.023,88.266h-8.909V53.878c0-3.499-0.819-6.511-2.446-9.025
		c-1.882-2.847-4.494-4.27-7.847-4.27c-4.084,0-9.192,2.154-15.323,6.462v41.221h-8.908V6.069l8.908-2.807V40.7
		c5.693-4.143,11.912-6.219,18.666-6.219c4.718,0,8.539,1.589,11.463,4.757c2.934,3.167,4.396,7.115,4.396,11.833V88.266
		L446.023,88.266z"/>
	<path id="path54" fill="#646464" d="M493.374,60.526c0-5.595-1.062-10.215-3.177-13.87c-2.516-4.454-6.424-6.804-11.707-7.047
		c-9.767,0.565-14.641,7.563-14.641,20.976c0,6.15,1.015,11.287,3.062,15.41c2.612,5.254,6.53,7.847,11.755,7.759
		C488.472,83.675,493.374,75.936,493.374,60.526z M503.131,60.584c0,7.964-2.037,14.592-6.102,19.884
		c-4.474,5.927-10.653,8.899-18.539,8.899c-7.816,0-13.908-2.973-18.305-8.899c-3.986-5.292-5.975-11.92-5.975-19.884
		c0-7.485,2.154-13.782,6.462-18.909c4.552-5.439,10.536-8.168,17.935-8.168s13.422,2.729,18.062,8.168
		C500.977,46.802,503.131,53.099,503.131,60.584z"/>
	<path id="path56" fill="#646464" d="M554.206,88.266h-8.909V51.929c0-3.986-1.199-7.096-3.597-9.338
		c-2.397-2.232-5.595-3.313-9.581-3.227c-4.23,0.078-8.256,1.463-12.077,4.143v44.759h-8.908v-45.86
		c5.127-3.732,9.844-6.17,14.152-7.31c4.064-1.062,7.651-1.589,10.741-1.589c2.115,0,4.104,0.204,5.976,0.614
		c3.499,0.809,6.345,2.31,8.538,4.513c2.446,2.437,3.665,5.36,3.665,8.782V88.266z"/>
	<path id="text3004" fill="#646464" d="M571.555,26.909h1.562v-9.796h3.7v-1.168h-8.962v1.168h3.7V26.909 M578.201,26.909h1.335
		v-8.947l2.896,8.946h1.485l3.019-8.916v8.917h1.455V15.946h-1.926l-3.298,9.393l-2.813-9.393h-2.153V26.909"/>
</g>
<radialGradient id="path1894_1_" cx="-1173.0781" cy="41.0676" r="29.037" gradientTransform="matrix(1.749057e-08 -0.2399 -1.0547 -3.791546e-07 104.7202 -147.3796)" gradientUnits="userSpaceOnUse">
	<stop  offset="0" style="stop-color:#B8B8B8;stop-opacity:0.498"/>
	<stop  offset="1" style="stop-color:#7F7F7F;stop-opacity:0"/>
</radialGradient>
<path id="path1894" opacity="0.4438" fill="url(#path1894_1_)" enable-background="new    " d="M97.339,134.098
	c0,3.848-16.086,6.967-35.931,6.967s-35.931-3.119-35.931-6.967s16.087-6.968,35.931-6.968S97.339,130.25,97.339,134.098z"/>
<g>
	<path d="M186.96,6.78l8.4-2.945l0.119,77.189c-3.6,2.865-7.48,5.154-11.64,6.872c-4.16,1.719-8.682,2.577-13.56,2.577
		c-3.601,0-6.701-0.858-9.301-2.577c-2.601-1.718-4.76-3.927-6.479-6.626c-1.722-2.7-2.981-5.707-3.78-9.021
		c-0.801-3.312-1.2-6.565-1.2-9.756c0-3.271,0.46-6.584,1.381-9.94c0.918-3.354,2.279-6.381,4.079-9.081
		c1.801-2.7,4.06-4.888,6.78-6.565c2.719-1.676,5.88-2.516,9.48-2.516c2.799,0,5.479,0.349,8.04,1.043
		c2.559,0.696,5.118,1.657,7.68,2.884V6.78z M186.96,45.191c-2.24-1.39-4.4-2.556-6.48-3.498c-2.081-0.939-4.439-1.411-7.079-1.411
		c-2.802,0-5.121,0.757-6.961,2.27c-1.841,1.515-3.3,3.417-4.38,5.707c-1.08,2.291-1.859,4.786-2.34,7.486
		c-0.479,2.699-0.72,5.154-0.72,7.363c0,2.128,0.22,4.46,0.66,6.994c0.438,2.537,1.2,4.909,2.279,7.118
		c1.08,2.209,2.521,4.07,4.32,5.583c1.8,1.516,4.021,2.271,6.66,2.271c2.719,0,5.34-0.552,7.86-1.656
		c2.52-1.104,4.578-2.229,6.18-3.375V45.191z"/>
	<path d="M246.839,84.95c-2.562,1.719-5.46,3.09-8.7,4.111c-3.24,1.022-6.78,1.534-10.62,1.534c-3.359,0-6.359-0.798-8.998-2.393
		c-2.638-1.596-4.863-3.682-6.679-6.259s-3.197-5.501-4.144-8.774c-0.947-3.271-1.42-6.585-1.42-9.94
		c0-5.071,0.966-9.878,2.901-14.419c1.933-4.541,4.727-8.119,8.379-10.738c1.84-1.308,3.88-2.271,6.12-2.884
		c2.238-0.614,4.539-0.878,6.9-0.798c2.358,0.083,4.719,0.472,7.08,1.166c2.358,0.696,4.578,1.699,6.659,3.006l-2.52,4.786
		c-1.842-0.899-3.882-1.657-6.12-2.271c-2.24-0.613-4.4-0.838-6.48-0.675c-2.399,0.165-4.48,0.962-6.239,2.393
		c-1.761,1.432-3.222,3.233-4.38,5.399c-1.161,2.168-2.04,4.583-2.641,7.24c-0.6,2.66-0.899,5.257-0.899,7.792
		c0,2.454,0.318,4.93,0.96,7.425c0.639,2.496,1.578,4.767,2.819,6.811c1.239,2.046,2.8,3.743,4.681,5.093
		c1.879,1.35,4.059,2.024,6.54,2.024c2.799,0.083,5.319-0.325,7.56-1.227c2.239-0.899,4.561-1.922,6.96-3.068L246.839,84.95z"/>
</g>
</svg>
